<svg xmlns="http://www.w3.org/2000/svg" viewBox="0 0 293.8 228.69"><defs><style>.cls-1{fill:#fff;}.cls-1,.cls-2,.cls-3,.cls-4{fill-rule:evenodd;}.cls-2{fill:#724943;}.cls-3{fill:#f8abad;}.cls-4{fill:#ed1c24;}</style></defs><title>Asset 1</title><g id="Layer_2" data-name="Layer 2"><g id="Layer_1-2" data-name="Layer 1"><path class="cls-1" d="M5.8,145.61v41c0,14.4,18,27.3,46.6,36.3v-83.3c-16.5-1.3-20.4,13.4-46.6,6Z"/><path class="cls-1" d="M241.4,163.71v59.2C270,214,288,201,288,186.61v-41c-26.2,7.4-30.1-7.3-46.5-6h0l-.1,24.1Z"/><path class="cls-1" d="M147,127.61l94.4,36.1v-59.2h0l-83.3-31.9-.3-.1a33.83,33.83,0,0,1-11,1.8l.2,53.3Z"/><path class="cls-1" d="M146.7,127.61l-94.4,36.1v-59.2h0l83.3-31.9.3-.1a33.83,33.83,0,0,0,11,1.8l-.2,53.3Z"/><polygon class="cls-2" points="146.7 127.61 52.4 163.71 52.4 222.91 146.9 186.81 146.6 186.61 146.7 127.61"/><polygon class="cls-2" points="147 127.61 147.1 186.61 146.9 186.81 241.3 222.91 241.4 163.71 147 127.61"/><path class="cls-3" d="M52.3,104.51c-28.6-8.9-46.5-21.9-46.5-36.3v77.3c26.2,7.4,30.1-7.3,46.5-6v-35Z"/><path class="cls-3" d="M5.8,68.31c0,14.4,18,27.3,46.5,36.3l83.3-31.9c-6.2-2.1-11.5-6-14.2-11.9-4.9-10.6-1-28.4,6.7-40.8C59.1,23,5.8,43.51,5.8,68.31Z"/><path class="cls-3" d="M241.4,104.51c28.6-8.9,46.5-21.9,46.5-36.3v77.3c-26.2,7.4-30.1-7.3-46.5-6v-35Z"/><path class="cls-3" d="M287.9,68.31c0,14.4-18,27.3-46.5,36.3l-83.3-31.9c6.2-2.1,11.5-6,14.2-11.9,4.9-10.6,1-28.4-6.7-40.8,69.1,3,122.3,23.5,122.3,48.3Z"/><path d="M293.7,186.61c0,9-5.1,17.2-14.3,24.4-8.7,6.7-21.1,12.7-36.3,17.4a5.7,5.7,0,0,1-7.2-3.8,5,5,0,0,1-.2-2.1l.1-117.4a6.48,6.48,0,0,1,.2-1.9,5.56,5.56,0,0,1,4-4.1c13.9-4.4,25-9.6,32.5-15.4,6.3-4.9,9.8-10.1,9.8-15.3h11.5v118.2Zm-21.4,15.3c6.4-4.9,9.9-10.1,9.9-15.3V90.41c-.9.8-1.8,1.5-2.8,2.3-7.9,6.1-18.8,11.6-32.2,16.1l-.1,106c10.5-3.8,19-8.2,25.2-12.9Z"/><path d="M146.9,13.61c39.5,0,75.5,5.6,101.6,14.7,27.9,9.7,45.2,23.8,45.2,40,0,9-5.1,17.2-14.3,24.4-8.6,6.7-21.1,12.7-36.3,17.4a6.15,6.15,0,0,1-3.8-.1h0l-92.5-35.5L54.3,110a5.52,5.52,0,0,1-4,0c-15.1-4.7-27.4-10.6-36-17.3C5.1,85.51,0,77.31,0,68.31c0-16.2,17.3-30.3,45.2-40,26.2-9.1,62.1-14.7,101.7-14.7Zm97.8,25.6c-24.9-8.6-59.5-14-97.9-14s-72.9,5.3-97.8,14c-23.1,8-37.4,18.3-37.4,29.1,0,5.2,3.5,10.3,9.8,15.3,7.2,5.6,17.7,10.6,30.7,14.9L144.8,63h0a5.79,5.79,0,0,1,4.1,0l92.7,35.5c13-4.2,23.5-9.3,30.7-14.9,6.3-4.9,9.8-10.1,9.8-15.3,0-10.8-14.3-21.1-37.4-29.1Z"/><path d="M243.4,217.41a5.82,5.82,0,1,1-4.1,10.9l-94.8-36.2a5.74,5.74,0,0,1-3.7-5.9l.3-117.9a5.8,5.8,0,1,1,11.6,0l-.3,114.4,91,34.7Z"/><path d="M11.6,186.61c0,5.1,3.5,10.3,9.9,15.3,6.1,4.8,14.7,9.1,25.1,13l-.1-106c-13.3-4.5-24.3-10-32.2-16.1a32.32,32.32,0,0,1-2.7-2.3v96.1ZM14.4,211C5.2,203.81.1,195.61.1,186.61V68.31H11.7c0,5.2,3.5,10.3,9.8,15.3,7.5,5.8,18.7,11.1,32.6,15.5h0a5.7,5.7,0,0,1,4,5h0v.1h0v.4h0l.1,117.8a3.86,3.86,0,0,1-.3,2.1,5.66,5.66,0,0,1-7.2,3.8c-15.2-4.7-27.7-10.6-36.3-17.3Z"/><path d="M54.5,228.31a5.82,5.82,0,0,1-4.1-10.9l91-34.8-.3-114.4a5.8,5.8,0,1,1,11.6,0l.3,117.9a6,6,0,0,1-3.7,5.9l-94.8,36.3Z"/><path d="M54.4,169.11a5.82,5.82,0,1,1-4.1-10.9L145.1,122a5.84,5.84,0,0,1,4.2,10.9l-94.9,36.2Z"/><path d="M243.4,158.31a5.82,5.82,0,1,1-4.1,10.9l-94.7-36.3a5.72,5.72,0,0,1-3.3-7.5,5.85,5.85,0,0,1,7.5-3.4l94.6,36.3Z"/><path d="M4.3,151.21a5.76,5.76,0,1,1,3.1-11.1c13.6,3.9,20.3.8,26.5-2,5.6-2.5,10.8-4.9,18.9-4.2a5.82,5.82,0,0,1-1,11.6c-5.2-.4-9.1,1.3-13.2,3.2-8,3.6-16.7,7.5-34.3,2.5Zm237.6-5.8a5.68,5.68,0,0,1-6.2-5.3,5.74,5.74,0,0,1,5.3-6.2c8.1-.7,13.3,1.7,18.8,4.2,6.2,2.8,12.9,5.8,26.5,2a5.76,5.76,0,1,1,3.1,11.1c-17.7,5-26.3,1.1-34.4-2.6-4.1-1.9-8-3.6-13.1-3.2Z"/><path class="cls-4" d="M146.8,5.71c16.4,0,34.1,36.4,25.4,54.9-8.2,17.7-42.3,18.7-50.8,0-8.2-17.6,8.2-55,25.4-54.9Z"/><path d="M146.9,0a19.23,19.23,0,0,1,8.1,1.9c6.9,3.2,13.3,10.6,18,19.4,4.5,8.5,7.4,18.6,7.4,27.7a34.14,34.14,0,0,1-2.8,14.1h0c-2.8,6.2-8,10.7-14.2,13.5a41.71,41.71,0,0,1-16.5,3.5,40.43,40.43,0,0,1-16.6-3.4,27.3,27.3,0,0,1-14-13.6c0-.1-.1-.2-.1-.3A32.36,32.36,0,0,1,113.7,49a65.3,65.3,0,0,1,7.1-27.5c4.5-8.9,10.8-16.3,17.9-19.6A16.51,16.51,0,0,1,146.9,0Zm3.2,12.3a8,8,0,0,0-3.3-.8h0a8.84,8.84,0,0,0-3.4.8c-4.6,2.1-9,7.6-12.4,14.3-3.6,7.1-5.9,15.3-5.9,22.4a22.16,22.16,0,0,0,1.5,8.9c0,.1.1.2.1.3a16,16,0,0,0,8.3,7.9,28.48,28.48,0,0,0,11.7,2.4A29.37,29.37,0,0,0,158.5,66a16.69,16.69,0,0,0,8.5-7.8h0a22.21,22.21,0,0,0,1.8-9.2c0-7.2-2.4-15.4-6.1-22.4-3.5-6.7-8.1-12.1-12.6-14.3Z"/></g></g></svg>